<svg xmlns="http://www.w3.org/2000/svg" width="800" height="168" viewBox="0 0 800 168" role="img" aria-label="Felipe Pacheco — Data Science and Mathematics student at Tecnológico de Monterrey, Querétaro, México. Currently in Year 3 of 4. Focus: ML, AI, Robotics.">
  <rect x="0.5" y="0.5" width="799" height="167" rx="10" fill="#FCFBF8" stroke="#E5E0D6"/>
  <rect x="32" y="35" width="6" height="6" fill="#C4432A"/>
  <text x="46" y="42" font-family="ui-monospace, 'SF Mono', 'Cascadia Mono', 'Segoe UI Mono', Menlo, Consolas, monospace" font-size="10.5" fill="#857E73" letter-spacing="1.4">QUERÉTARO, MÉXICO</text>
  <text x="30" y="88" font-family="'Iowan Old Style', 'Palatino Linotype', Palatino, 'Book Antiqua', Georgia, serif" font-size="42" fill="#1F1D1A">Felipe Pacheco</text>
  <text x="32" y="116" font-family="-apple-system, BlinkMacSystemFont, 'Segoe UI', 'Helvetica Neue', Arial, sans-serif" font-size="15" fill="#57524A">Data Science &amp; Mathematics · Tecnológico de Monterrey</text>
  <text x="32" y="143" font-family="ui-monospace, 'SF Mono', 'Cascadia Mono', 'Segoe UI Mono', Menlo, Consolas, monospace" font-size="12" fill="#1F1D1A" letter-spacing="0.3">ML<tspan fill="#B23D25" dx="10">/</tspan><tspan dx="10">AI</tspan><tspan fill="#B23D25" dx="10">/</tspan><tspan dx="10">Robotics</tspan></text>

  <text x="560" y="34" font-family="ui-monospace, 'SF Mono', 'Cascadia Mono', 'Segoe UI Mono', Menlo, Consolas, monospace" font-size="9.5" fill="#857E73" letter-spacing="1.2">DEGREE PROGRESS</text>
  <g fill="#DCD5C8"><circle cx="560" cy="42" r="0.9"/><circle cx="560" cy="55" r="0.9"/><circle cx="560" cy="68" r="0.9"/><circle cx="560" cy="81" r="0.9"/><circle cx="560" cy="94" r="0.9"/><circle cx="560" cy="107" r="0.9"/><circle cx="560" cy="120" r="0.9"/><circle cx="573" cy="42" r="0.9"/><circle cx="573" cy="55" r="0.9"/><circle cx="573" cy="68" r="0.9"/><circle cx="573" cy="81" r="0.9"/><circle cx="573" cy="94" r="0.9"/><circle cx="573" cy="107" r="0.9"/><circle cx="573" cy="120" r="0.9"/><circle cx="586" cy="42" r="0.9"/><circle cx="586" cy="55" r="0.9"/><circle cx="586" cy="68" r="0.9"/><circle cx="586" cy="81" r="0.9"/><circle cx="586" cy="94" r="0.9"/><circle cx="586" cy="107" r="0.9"/><circle cx="586" cy="120" r="0.9"/><circle cx="599" cy="42" r="0.9"/><circle cx="599" cy="55" r="0.9"/><circle cx="599" cy="68" r="0.9"/><circle cx="599" cy="81" r="0.9"/><circle cx="599" cy="94" r="0.9"/><circle cx="599" cy="107" r="0.9"/><circle cx="599" cy="120" r="0.9"/><circle cx="612" cy="42" r="0.9"/><circle cx="612" cy="55" r="0.9"/><circle cx="612" cy="68" r="0.9"/><circle cx="612" cy="81" r="0.9"/><circle cx="612" cy="94" r="0.9"/><circle cx="612" cy="107" r="0.9"/><circle cx="612" cy="120" r="0.9"/><circle cx="625" cy="42" r="0.9"/><circle cx="625" cy="55" r="0.9"/><circle cx="625" cy="68" r="0.9"/><circle cx="625" cy="81" r="0.9"/><circle cx="625" cy="94" r="0.9"/><circle cx="625" cy="107" r="0.9"/><circle cx="625" cy="120" r="0.9"/><circle cx="638" cy="42" r="0.9"/><circle cx="638" cy="55" r="0.9"/><circle cx="638" cy="68" r="0.9"/><circle cx="638" cy="81" r="0.9"/><circle cx="638" cy="94" r="0.9"/><circle cx="638" cy="107" r="0.9"/><circle cx="638" cy="120" r="0.9"/><circle cx="651" cy="42" r="0.9"/><circle cx="651" cy="55" r="0.9"/><circle cx="651" cy="68" r="0.9"/><circle cx="651" cy="81" r="0.9"/><circle cx="651" cy="94" r="0.9"/><circle cx="651" cy="107" r="0.9"/><circle cx="651" cy="120" r="0.9"/><circle cx="664" cy="42" r="0.9"/><circle cx="664" cy="55" r="0.9"/><circle cx="664" cy="68" r="0.9"/><circle cx="664" cy="81" r="0.9"/><circle cx="664" cy="94" r="0.9"/><circle cx="664" cy="107" r="0.9"/><circle cx="664" cy="120" r="0.9"/><circle cx="677" cy="42" r="0.9"/><circle cx="677" cy="55" r="0.9"/><circle cx="677" cy="68" r="0.9"/><circle cx="677" cy="81" r="0.9"/><circle cx="677" cy="94" r="0.9"/><circle cx="677" cy="107" r="0.9"/><circle cx="677" cy="120" r="0.9"/><circle cx="690" cy="42" r="0.9"/><circle cx="690" cy="55" r="0.9"/><circle cx="690" cy="68" r="0.9"/><circle cx="690" cy="81" r="0.9"/><circle cx="690" cy="94" r="0.9"/><circle cx="690" cy="107" r="0.9"/><circle cx="690" cy="120" r="0.9"/><circle cx="703" cy="42" r="0.9"/><circle cx="703" cy="55" r="0.9"/><circle cx="703" cy="68" r="0.9"/><circle cx="703" cy="81" r="0.9"/><circle cx="703" cy="94" r="0.9"/><circle cx="703" cy="107" r="0.9"/><circle cx="703" cy="120" r="0.9"/><circle cx="716" cy="42" r="0.9"/><circle cx="716" cy="55" r="0.9"/><circle cx="716" cy="68" r="0.9"/><circle cx="716" cy="81" r="0.9"/><circle cx="716" cy="94" r="0.9"/><circle cx="716" cy="107" r="0.9"/><circle cx="716" cy="120" r="0.9"/><circle cx="729" cy="42" r="0.9"/><circle cx="729" cy="55" r="0.9"/><circle cx="729" cy="68" r="0.9"/><circle cx="729" cy="81" r="0.9"/><circle cx="729" cy="94" r="0.9"/><circle cx="729" cy="107" r="0.9"/><circle cx="729" cy="120" r="0.9"/><circle cx="742" cy="42" r="0.9"/><circle cx="742" cy="55" r="0.9"/><circle cx="742" cy="68" r="0.9"/><circle cx="742" cy="81" r="0.9"/><circle cx="742" cy="94" r="0.9"/><circle cx="742" cy="107" r="0.9"/><circle cx="742" cy="120" r="0.9"/><circle cx="755" cy="42" r="0.9"/><circle cx="755" cy="55" r="0.9"/><circle cx="755" cy="68" r="0.9"/><circle cx="755" cy="81" r="0.9"/><circle cx="755" cy="94" r="0.9"/><circle cx="755" cy="107" r="0.9"/><circle cx="755" cy="120" r="0.9"/><circle cx="768" cy="42" r="0.9"/><circle cx="768" cy="55" r="0.9"/><circle cx="768" cy="68" r="0.9"/><circle cx="768" cy="81" r="0.9"/><circle cx="768" cy="94" r="0.9"/><circle cx="768" cy="107" r="0.9"/><circle cx="768" cy="120" r="0.9"/></g>
  <line x1="560" y1="124.5" x2="768" y2="124.5" stroke="#857E73"/>
  <g stroke="#857E73"><line x1="560" y1="124" x2="560" y2="128"/><line x1="612" y1="124" x2="612" y2="128"/><line x1="664" y1="124" x2="664" y2="128"/><line x1="716" y1="124" x2="716" y2="128"/><line x1="768" y1="124" x2="768" y2="128"/></g>
  <g font-family="ui-monospace, 'SF Mono', 'Cascadia Mono', 'Segoe UI Mono', Menlo, Consolas, monospace" font-size="10" fill="#857E73"><text x="560" y="142" text-anchor="middle">’24</text><text x="612" y="142" text-anchor="middle">’25</text><text x="664" y="142" text-anchor="middle">’26</text><text x="716" y="142" text-anchor="middle">’27</text><text x="768" y="142" text-anchor="middle">’28</text></g>
  <polyline points="673.11,76.96 675.71,75.29 678.31,73.64 680.91,72.04 683.51,70.48 686.11,68.97 688.71,67.51 691.31,66.12 693.91,64.78 696.51,63.5 699.11,62.29 701.71,61.14 704.31,60.05 706.91,59.03 709.51,58.06 712.11,57.16 714.71,56.32 717.31,55.53 719.91,54.8 722.51,54.12 725.11,53.49 727.71,52.9 730.31,52.36 732.91,51.86 735.51,51.4 738.11,50.97 740.71,50.58 743.31,50.22 745.91,49.89 748.51,49.59 751.11,49.31 753.71,49.06 756.31,48.83 758.91,48.61 761.51,48.42 764.11,48.24 766.71,48.08 768,48" fill="none" stroke="#857E73" stroke-width="1.4" stroke-dasharray="2 3"/>
  <polyline points="560,118 562.6,117.84 565.2,117.67 567.8,117.49 570.4,117.28 573,117.06 575.6,116.82 578.2,116.55 580.8,116.26 583.4,115.94 586,115.6 588.6,115.22 591.2,114.82 593.8,114.37 596.4,113.89 599,113.37 601.6,112.81 604.2,112.2 606.8,111.54 609.4,110.84 612,110.08 614.6,109.26 617.2,108.39 619.8,107.46 622.4,106.46 625,105.41 627.6,104.29 630.2,103.11 632.8,101.86 635.4,100.56 638,99.19 640.6,97.76 643.2,96.28 645.8,94.74 648.4,93.16 651,91.53 653.6,89.87 656.2,88.18 658.8,86.47 661.4,84.74 664,83 666.6,81.26 669.2,79.53 671.8,77.82 673.11,76.96" fill="none" stroke="#B23D25" stroke-width="2" stroke-linecap="round"/>
  <line x1="673.11" y1="82.96" x2="673.11" y2="124" stroke="#B23D25" stroke-opacity="0.5" stroke-dasharray="2 2"/>
  <circle cx="673.11" cy="76.96" r="9" fill="#C4432A" fill-opacity="0.18"/>
  <circle cx="673.11" cy="76.96" r="4" fill="#B23D25"/>
  <text x="659.11" y="68.96" font-family="ui-monospace, 'SF Mono', 'Cascadia Mono', 'Segoe UI Mono', Menlo, Consolas, monospace" font-size="10.5" fill="#1F1D1A" text-anchor="end">year 3 of 4</text>
</svg>
